<?xml version="1.0" encoding="utf-8"?>
<!-- Generator: Adobe Illustrator 24.2.0, SVG Export Plug-In . SVG Version: 6.00 Build 0)  -->
<svg version="1.1" id="Layer_1" xmlns="http://www.w3.org/2000/svg" xmlns:xlink="http://www.w3.org/1999/xlink" x="0px" y="0px"
	 viewBox="0 0 82 143" style="enable-background:new 0 0 82 143;" xml:space="preserve">
<style type="text/css">
	.st0{fill-rule:evenodd;clip-rule:evenodd;}
</style>
<path class="st0" d="M41,71.5c-6.2,3.6-11.9,8-17,13.1c-7.6,7.7-13.7,16.8-17.8,26.8S0,132.2,0,143h22c0-7.9,1.6-15.8,4.6-23.1
	c3-7.3,7.4-14,13-19.6s12.2-10.1,19.5-13.1s15.1-4.6,22.9-4.6V60.5v-0.1c-7.9,0-15.7-1.6-22.9-4.6c-7.3-3-13.9-7.5-19.5-13.1
	s-10-12.3-13-19.6S22,7.9,22,0H0c0,10.8,2.1,21.6,6.2,31.6S16.4,50.7,24,58.4C29.1,63.5,34.8,67.9,41,71.5z"/>
</svg>
