<svg width="96" height="97" viewBox="0 0 96 97" fill="none" xmlns="http://www.w3.org/2000/svg">
<path d="M16.6823 1.09766L94.8103 1.09765L94.8103 79.2317L77.4803 79.2317L77.4803 32.0316L76.8423 31.7317C74.7823 33.8577 72.7613 36.0256 70.6423 38.0966C69.2823 39.4286 67.7033 40.5397 66.3643 41.8907C63.1913 45.0907 60.1563 48.4256 56.9643 51.6056C54.1193 54.4416 51.0643 57.0706 48.2363 59.9186C44.8893 63.2856 41.7363 66.8477 38.3933 70.2187C35.6183 73.0127 32.6143 75.5787 29.8413 78.3737C26.4413 81.7997 23.1983 85.3787 19.8463 88.8517C17.8733 90.8957 15.7773 92.8217 13.8233 94.8827C12.7653 95.9987 11.9863 96.2137 10.8293 94.9507C7.7023 91.5377 4.43532 88.2506 1.31432 84.8316C1.169 84.5426 1.09986 84.2212 1.11351 83.898C1.12716 83.5748 1.22312 83.2604 1.39229 82.9846C5.43229 78.7646 9.57331 74.6417 13.6533 70.4607C16.6863 67.3517 19.6103 64.1337 22.6933 61.0757C25.7203 58.0757 28.9643 55.2886 31.9733 52.2686C35.2653 48.9686 38.3363 45.4426 41.6153 42.1256C44.5533 39.1546 47.7043 36.3936 50.6513 33.4316C53.8843 30.1816 56.9513 26.7667 60.1723 23.5037C61.6373 22.0197 63.2983 20.7286 64.8723 19.3496L64.5453 18.6277L16.6823 18.6277L16.6823 1.09766Z" stroke="#111111"/>
</svg>
