<svg width="199" height="78" viewBox="0 0 199 78" fill="none" xmlns="http://www.w3.org/2000/svg">
<g clip-path="url(#clip0_5061_1162)">
<path d="M13.9601 59.6928C11.8489 59.6928 9.82426 58.8286 8.33146 57.2903C6.83865 55.752 6 53.6657 6 51.4902V24.1518C6 21.9763 6.83865 19.89 8.33146 18.3517C9.82426 16.8134 11.8489 15.9492 13.9601 15.9492C16.0712 15.9492 18.0959 16.8134 19.5887 18.3517C21.0815 19.89 21.9202 21.9763 21.9202 24.1518V51.4902C21.9202 53.6657 21.0815 55.752 19.5887 57.2903C18.0959 58.8286 16.0712 59.6928 13.9601 59.6928Z" fill="white"/>
<path d="M21.7055 22.2827C21.2965 20.4818 20.3088 18.8762 18.9028 17.7265C17.4968 16.5768 15.755 15.9505 13.9601 15.9492C11.8489 15.9492 9.82426 16.8134 8.33146 18.3517C6.83865 19.89 6 21.9763 6 24.1518V51.4902C6.00203 53.616 6.80649 55.6576 8.24318 57.1831C7.92849 52.4832 8.38458 47.7621 9.5923 43.2183C11.6849 35.2833 16.0078 28.0351 21.7055 22.2827Z" fill="white"/>
<path d="M51.0421 59.6928C48.931 59.6928 46.9063 58.8286 45.4135 57.2903C43.9207 55.752 43.082 53.6657 43.082 51.4902V24.1518C43.082 21.9763 43.9207 19.89 45.4135 18.3517C46.9063 16.8134 48.931 15.9492 51.0421 15.9492C53.1527 15.9501 55.1766 16.8147 56.6687 18.3529C58.1608 19.891 58.999 21.9769 58.999 24.1518V51.4902C58.999 53.6651 58.1608 55.7509 56.6687 57.2891C55.1766 58.8273 53.1527 59.6919 51.0421 59.6928Z" fill="white"/>
<path d="M58.7875 22.2827C58.3754 20.484 57.3861 18.8813 55.9797 17.7342C54.5734 16.5871 52.8325 15.9628 51.0389 15.9624C48.9283 15.9633 46.9045 16.8279 45.4124 18.366C43.9202 19.9042 43.082 21.9901 43.082 24.1649V51.5034C43.0827 53.6295 43.8874 55.6716 45.3252 57.1963C45.0112 52.4965 45.4662 47.7758 46.6711 43.2315C48.7733 35.2833 53.0898 28.035 58.7875 22.2827Z" fill="white"/>
<path d="M32.3944 28.2598C33.4397 28.2598 34.4748 28.4719 35.4406 28.8841C36.4063 29.2964 37.2839 29.9006 38.023 30.6622C38.7622 31.4239 39.3485 32.3281 39.7486 33.3233C40.1486 34.3185 40.3545 35.3851 40.3545 36.4623V63.8008C40.3545 65.9762 39.5158 68.0626 38.023 69.6008C36.5302 71.1391 34.5055 72.0033 32.3944 72.0033C30.2838 72.0024 28.2599 71.1379 26.7678 69.5997C25.2757 68.0615 24.4375 65.9756 24.4375 63.8008V36.4623C24.4375 34.2874 25.2757 32.2016 26.7678 30.6634C28.2599 29.1252 30.2838 28.2606 32.3944 28.2598Z" fill="white"/>
<path d="M24.6484 65.6798C25.0604 67.478 26.0493 69.0803 27.455 70.2273C28.8606 71.3744 30.6008 71.999 32.3938 72.0001C34.5044 72.0001 36.5286 71.1364 38.0213 69.5988C39.514 68.0613 40.3531 65.9758 40.3539 63.8009V36.4624C40.3532 34.3364 39.5486 32.2943 38.1107 30.7695C38.4297 35.4698 37.9779 40.1919 36.7744 44.7376C34.6755 52.6628 30.3461 59.9275 24.6484 65.6798Z" fill="white"/>
<path d="M38.9131 13.8967C39.4976 10.1866 37.0526 6.69069 33.4521 6.08845C29.8516 5.48621 26.4591 8.00566 25.8746 11.7158C25.2902 15.4259 27.7352 18.9218 31.3356 19.524C34.9361 20.1263 38.3287 17.6068 38.9131 13.8967Z" fill="white"/>
<path d="M26.1836 15.1139C26.7147 16.6404 27.7574 17.9214 29.1239 18.726C30.4903 19.5306 32.0906 19.8059 33.6366 19.5024C35.1826 19.199 36.5726 18.3366 37.5562 17.0707C38.5398 15.8048 39.0525 14.2185 39.0018 12.5977C38.6526 13.1346 38.2474 13.6307 37.7937 14.077C36.6874 15.1199 35.3585 15.88 33.9145 16.2958C32.4705 16.7117 30.9518 16.7718 29.4811 16.4711C28.3125 16.2238 27.1959 15.7643 26.1836 15.1139Z" fill="white"/>
</g>
<path d="M93.375 12.3125L93.0938 19.1562C86.5938 18.8229 80.7083 18.6562 75.4375 18.6562C75.7083 22.2188 75.8438 26.1667 75.8438 30.5C79.8646 30.5 84.4271 30.3958 89.5312 30.1875V36.6562C84.3646 36.4688 79.8021 36.375 75.8438 36.375C75.8438 42.2708 75.9375 47.8125 76.125 53H67.5C67.7708 46.7083 67.9062 39.6146 67.9062 31.7188C67.9062 24.1354 67.7708 17.6667 67.5 12.3125H93.375ZM128.031 37.4688C128.031 42.7188 126.417 46.8229 123.188 49.7812C119.958 52.7396 116.156 54.2188 111.781 54.2188C107.615 54.2188 104.042 52.875 101.062 50.1875C98.0833 47.4792 96.5938 43.6771 96.5938 38.7812C96.5938 33.5104 98.2188 29.3854 101.469 26.4062C104.719 23.4271 108.531 21.9375 112.906 21.9375C117.052 21.9375 120.604 23.3021 123.562 26.0312C126.542 28.7396 128.031 32.5521 128.031 37.4688ZM119.875 38.4062C119.875 35.3854 119.167 32.8542 117.75 30.8125C116.333 28.75 114.49 27.7188 112.219 27.7188C110.01 27.7188 108.208 28.6771 106.812 30.5938C105.438 32.5104 104.75 34.9062 104.75 37.7812C104.75 40.8021 105.458 43.3438 106.875 45.4062C108.292 47.4479 110.135 48.4688 112.406 48.4688C114.615 48.4688 116.406 47.5104 117.781 45.5938C119.177 43.6771 119.875 41.2812 119.875 38.4062ZM143 53H134.469C134.781 45.8542 134.938 38.1146 134.938 29.7812C134.938 21.6562 134.615 14.75 133.969 9.0625L143 8.5625C142.688 14.4583 142.531 21.5312 142.531 29.7812C142.531 38.1562 142.688 45.8958 143 53ZM159.031 53H150.625C150.917 48.6875 151.062 43.7396 151.062 38.1562C151.062 32.6146 150.708 27.7604 150 23.5938L159 22.6875C158.729 26.7292 158.594 31.8854 158.594 38.1562C158.594 43.5104 158.74 48.4583 159.031 53ZM160.469 13.875C160.469 15.2917 159.979 16.5312 159 17.5938C158.042 18.6562 156.698 19.1875 154.969 19.1875C153.51 19.1875 152.365 18.7292 151.531 17.8125C150.719 16.8958 150.312 15.7917 150.312 14.5C150.312 13.0833 150.792 11.8542 151.75 10.8125C152.729 9.77083 154.094 9.25 155.844 9.25C157.323 9.25 158.458 9.70833 159.25 10.625C160.062 11.5208 160.469 12.6042 160.469 13.875ZM196.219 37.4688C196.219 42.7188 194.604 46.8229 191.375 49.7812C188.146 52.7396 184.344 54.2188 179.969 54.2188C175.802 54.2188 172.229 52.875 169.25 50.1875C166.271 47.4792 164.781 43.6771 164.781 38.7812C164.781 33.5104 166.406 29.3854 169.656 26.4062C172.906 23.4271 176.719 21.9375 181.094 21.9375C185.24 21.9375 188.792 23.3021 191.75 26.0312C194.729 28.7396 196.219 32.5521 196.219 37.4688ZM188.062 38.4062C188.062 35.3854 187.354 32.8542 185.938 30.8125C184.521 28.75 182.677 27.7188 180.406 27.7188C178.198 27.7188 176.396 28.6771 175 30.5938C173.625 32.5104 172.938 34.9062 172.938 37.7812C172.938 40.8021 173.646 43.3438 175.062 45.4062C176.479 47.4479 178.323 48.4688 180.594 48.4688C182.802 48.4688 184.594 47.5104 185.969 45.5938C187.365 43.6771 188.062 41.2812 188.062 38.4062Z" fill="white"/>
<path d="M76.5518 71H75.1094C75.1094 70.6947 74.8223 69.7354 74.248 68.1221H70.3037C69.7386 69.7126 69.4561 70.6719 69.4561 71H68.0752C68.0752 70.8314 68.6631 69.3753 69.8389 66.6318C71.0146 63.8838 71.6025 62.373 71.6025 62.0996H73.1885C73.1885 62.3685 73.749 63.8564 74.8701 66.5635C75.9912 69.2705 76.5518 70.7493 76.5518 71ZM73.9336 67.2266C72.8626 64.5514 72.3271 63.1296 72.3271 62.9609H72.252C72.252 63.1022 71.6982 64.5241 70.5908 67.2266H73.9336ZM99.6663 70.8154C98.9189 71.0615 98.1646 71.1846 97.4036 71.1846C95.8039 71.1846 94.5963 70.7585 93.7805 69.9062C92.9693 69.0495 92.5637 67.9922 92.5637 66.7344C92.5637 65.4629 93.0058 64.3532 93.8899 63.4053C94.774 62.4528 95.9999 61.9766 97.5676 61.9766C98.1327 61.9766 98.6682 62.0426 99.1741 62.1748L99.0032 63.3096C98.2512 63.1273 97.6451 63.0361 97.1848 63.0361C96.0819 63.0361 95.2366 63.3711 94.6487 64.041C94.0653 64.7064 93.7737 65.5335 93.7737 66.5225C93.7737 67.516 94.1086 68.3864 94.7786 69.1338C95.453 69.8812 96.4032 70.2549 97.6291 70.2549C97.8524 70.2549 98.1874 70.2207 98.634 70.1523C98.5565 69.6784 98.5178 69.127 98.5178 68.498C98.5178 67.9694 98.4859 67.4521 98.4221 66.9463H99.6663C99.6298 67.5479 99.6116 68.1836 99.6116 68.8535C99.6116 69.1406 99.6298 69.7946 99.6663 70.8154ZM122.678 69.9678L122.637 71H117.127C117.191 69.5872 117.223 68.0286 117.223 66.3242C117.223 64.7201 117.191 63.3118 117.127 62.0996H122.295L122.241 63.1182C120.987 63.0635 119.659 63.0361 118.255 63.0361C118.283 63.7425 118.296 64.6973 118.296 65.9004C119.509 65.9004 120.589 65.873 121.537 65.8184V66.8369C120.525 66.7959 119.445 66.7754 118.296 66.7754C118.296 67.9466 118.317 69.0449 118.358 70.0703C119.871 70.0703 121.311 70.0361 122.678 69.9678ZM146.538 71H145.581C145.581 70.9225 144.833 69.8311 143.339 67.7256C141.775 65.5153 140.884 64.1208 140.666 63.542H140.597C140.679 64.6403 140.72 65.5814 140.72 66.3652C140.72 67.8965 140.755 69.4414 140.823 71H139.675C139.752 69.5189 139.791 67.9603 139.791 66.3242C139.791 64.7155 139.752 63.3073 139.675 62.0996H140.987C140.987 62.2272 141.675 63.2663 143.051 65.2168C144.492 67.2676 145.312 68.6029 145.512 69.2227H145.581C145.503 68.1107 145.465 67.1673 145.465 66.3926C145.465 64.7064 145.433 63.2754 145.369 62.0996H146.538C146.46 63.3073 146.422 64.7155 146.422 66.3242C146.422 67.9603 146.46 69.5189 146.538 71ZM170.397 69.9131L170.309 70.9316C169.748 71.1003 169.137 71.1846 168.477 71.1846C166.909 71.1846 165.731 70.7562 164.942 69.8994C164.154 69.0381 163.76 67.9876 163.76 66.748C163.76 65.4492 164.2 64.3304 165.079 63.3916C165.959 62.4482 167.141 61.9766 168.627 61.9766C169.037 61.9766 169.47 62.0381 169.926 62.1611L169.734 63.248C169.21 63.084 168.743 63.002 168.333 63.002C167.23 63.002 166.394 63.3438 165.824 64.0273C165.255 64.7109 164.97 65.5472 164.97 66.5361C164.97 67.5433 165.298 68.4069 165.954 69.127C166.61 69.847 167.517 70.207 168.675 70.207C169.117 70.207 169.691 70.109 170.397 69.9131ZM193.594 62.0996C193.594 62.2682 193.314 62.7604 192.753 63.5762C191.96 64.7292 191.443 65.513 191.201 65.9277C190.641 66.8802 190.361 67.6048 190.361 68.1016C190.361 69.0404 190.392 70.0065 190.456 71H189.144C189.203 70.0566 189.233 69.0859 189.233 68.0879C189.233 67.541 188.971 66.7822 188.446 65.8115C188.15 65.2692 187.66 64.4854 186.977 63.46C186.453 62.667 186.191 62.2135 186.191 62.0996H187.592C187.592 62.2181 187.984 62.945 188.768 64.2803C189.556 65.611 189.95 66.4906 189.95 66.9189H190.019C190.019 66.486 190.392 65.6201 191.14 64.3213C191.892 63.0225 192.268 62.2819 192.268 62.0996H193.594Z" fill="white"/>
<defs>
<clipPath id="clip0_5061_1162">
<rect width="53" height="66" fill="white" transform="translate(6 6)"/>
</clipPath>
</defs>
</svg>
