<?xml version="1.0" encoding="utf-8"?>
<!-- Generator: Adobe Illustrator 24.2.0, SVG Export Plug-In . SVG Version: 6.00 Build 0)  -->
<svg version="1.1" id="Layer_1" xmlns="http://www.w3.org/2000/svg" xmlns:xlink="http://www.w3.org/1999/xlink" x="0px" y="0px"
	 viewBox="0 0 244 244" style="enable-background:new 0 0 244 244;" xml:space="preserve">
<style type="text/css">
	.st0{fill:#020202;}
</style>
<path class="st0" d="M116.6,242.8l-0.1,1.2l-8.6-0.7l0.1-1.2l3.6,0.3l0.8-10.3l1.4,0.1l-0.8,10.3L116.6,242.8z"/>
<path class="st0" d="M98.8,230.1L96,241.3l-6.8-1.7l0.3-1.2l5.4,1.3l0.9-3.8l-5.1-1.2l0.3-1.2l5.1,1.2l0.9-3.8l-5.5-1.4l0.3-1.2
	L98.8,230.1z"/>
<path class="st0" d="M72.9,230.6c-0.2,0.6-0.1,1.1,0.2,1.5c0.3,0.5,0.8,0.9,1.4,1.1c0.5,0.2,0.9,0.3,1.3,0.3c0.4,0,0.8-0.1,1.1-0.3
	c0.3-0.2,0.5-0.4,0.7-0.8c0.1-0.3,0.2-0.6,0.1-0.8c-0.1-0.3-0.2-0.5-0.3-0.7c-0.2-0.2-0.3-0.4-0.5-0.6c-0.2-0.2-0.4-0.3-0.6-0.5
	l-1-0.7c-0.2-0.2-0.5-0.4-0.8-0.7c-0.3-0.3-0.5-0.6-0.8-0.9c-0.2-0.4-0.4-0.7-0.4-1.2c-0.1-0.4,0-0.9,0.2-1.4c0.2-0.6,0.6-1,1.1-1.4
	c0.5-0.3,1.1-0.5,1.8-0.5c0.7,0,1.4,0.1,2.3,0.5c0.8,0.3,1.4,0.7,1.8,1.2c0.4,0.5,0.7,1,0.9,1.6c0.1,0.6,0.1,1.2-0.1,1.8l-1.3-0.6
	c0.1-0.4,0.1-0.8,0-1.2c-0.1-0.4-0.3-0.7-0.7-1c-0.3-0.3-0.7-0.5-1.1-0.7c-0.5-0.2-1-0.3-1.4-0.3c-0.5,0-0.9,0.1-1.2,0.3
	c-0.4,0.2-0.6,0.5-0.8,0.9c-0.2,0.4-0.2,0.7-0.1,1c0.1,0.3,0.3,0.6,0.5,0.9c0.3,0.3,0.6,0.5,0.9,0.8l1.1,0.9
	c0.7,0.6,1.2,1.2,1.5,1.9c0.3,0.6,0.3,1.3,0,2c-0.3,0.6-0.6,1-1.1,1.3c-0.5,0.3-1.1,0.5-1.7,0.5c-0.7,0-1.3-0.1-2-0.4
	c-0.7-0.3-1.2-0.7-1.7-1.1c-0.4-0.5-0.7-1-0.8-1.5c-0.1-0.6-0.1-1.1,0.1-1.6L72.9,230.6z"/>
<path class="st0" d="M61.1,226.4l-0.7,1l-7.3-4.6l0.7-1l3.1,1.9l5.5-8.7l1.2,0.7l-5.5,8.7L61.1,226.4z"/>
<path class="st0" d="M40.6,212.9l7.6-8.6l1,0.9l-7.6,8.6L40.6,212.9z"/>
<path class="st0" d="M30.6,203.1l-1.1-1.3l4.9-9.1l-0.1-0.1l-9.9,3l-1.1-1.3l8.9-7.3l0.8,1l-6.8,5.5l0.1,0.1l9.1-2.7l0.8,1l-4.5,8.3
	l0.1,0.1l6.8-5.5l0.8,1L30.6,203.1z"/>
<path class="st0" d="M16,182.5l10-5.8l0.7,1.2l-10,5.8L16,182.5z"/>
<path class="st0" d="M6,160.5l10.8-4.1l0.5,1.3l-6.2,9.1l0,0.1l8.5-3.2l0.5,1.3L9.3,169l-0.5-1.3l6.3-9.1l0-0.1l-8.5,3.2L6,160.5z"
	/>
<path class="st0" d="M2.3,145.8l11.3-2.3l0.3,1.4l-11.3,2.3L2.3,145.8z"/>
<path class="st0" d="M11.7,129.4l0.1,1.5l-11.7-3.8L0,125.6l11.4-4.7l0.1,1.5l-9.6,3.8l0,0.1L11.7,129.4z M7.2,129l-0.2-5.9l1.2,0
	l0.2,5.9L7.2,129z"/>
<path class="st0" d="M12,111.2l-11.4-1.4l0.2-1.4l10.2,1.2l0.6-5.3l1.2,0.2L12,111.2z"/>
<path class="st0" d="M27.9,54.1l1,0.7l-2.9,4.2l-1-0.7L27.9,54.1z"/>
<path class="st0" d="M62,17.2l-0.6-1.1l7.7-4l0.6,1.1l-3.2,1.7l4.8,9.1L70,24.6l-4.8-9.1L62,17.2z"/>
<path class="st0" d="M83.5,18.5L79.9,7.5l3.7-1.2C84.4,6,85.2,5.9,85.8,6c0.6,0.1,1.2,0.4,1.6,0.8c0.4,0.4,0.8,0.9,1,1.6
	c0.2,0.6,0.3,1.3,0.2,1.8c-0.1,0.6-0.4,1.1-0.8,1.6c-0.5,0.5-1.1,0.8-1.9,1.1l-3,1l-0.4-1.2l2.9-1c0.6-0.2,1-0.4,1.3-0.7
	c0.3-0.3,0.5-0.6,0.5-1c0.1-0.4,0-0.8-0.1-1.2C87,8.4,86.8,8,86.5,7.8c-0.3-0.3-0.6-0.4-1-0.5c-0.4-0.1-0.9,0-1.5,0.2l-2.3,0.8
	l3.3,9.8L83.5,18.5z M87,11.8l4.3,4l-1.5,0.5l-4.3-4L87,11.8z"/>
<path class="st0" d="M106.1,1.1l1.4-0.2l1.2,7.5c0.1,0.8,0.1,1.5-0.2,2.2c-0.3,0.7-0.7,1.2-1.3,1.7c-0.6,0.5-1.4,0.8-2.3,0.9
	c-0.9,0.1-1.7,0.1-2.4-0.1c-0.7-0.2-1.3-0.6-1.8-1.2c-0.5-0.6-0.8-1.2-0.9-2l-1.2-7.5l1.4-0.2l1.2,7.4c0.1,0.6,0.3,1,0.6,1.4
	c0.3,0.4,0.7,0.7,1.2,0.8c0.5,0.2,1.1,0.2,1.7,0.1c0.6-0.1,1.2-0.3,1.6-0.6c0.4-0.3,0.7-0.7,0.9-1.2c0.2-0.5,0.2-1,0.1-1.5
	L106.1,1.1z"/>
<path class="st0" d="M124.7,3c-0.1-0.6-0.3-1-0.8-1.3c-0.5-0.3-1.1-0.5-1.8-0.5c-0.5,0-1,0.1-1.3,0.2c-0.4,0.2-0.7,0.4-0.9,0.7
	c-0.2,0.3-0.3,0.6-0.3,1c0,0.3,0.1,0.6,0.2,0.8c0.2,0.2,0.3,0.4,0.6,0.5c0.2,0.1,0.5,0.3,0.7,0.4c0.3,0.1,0.5,0.2,0.7,0.2l1.2,0.3
	c0.3,0.1,0.6,0.2,1,0.3c0.4,0.1,0.7,0.3,1.1,0.6c0.3,0.2,0.6,0.5,0.8,0.9c0.2,0.4,0.3,0.8,0.3,1.4c0,0.6-0.2,1.2-0.5,1.7
	c-0.3,0.5-0.8,0.9-1.4,1.2c-0.6,0.3-1.4,0.4-2.3,0.4c-0.8,0-1.5-0.1-2.1-0.4c-0.6-0.3-1.1-0.6-1.4-1.1c-0.3-0.5-0.5-1-0.6-1.7h1.4
	c0,0.4,0.2,0.8,0.4,1.1c0.3,0.3,0.6,0.5,1,0.6c0.4,0.1,0.8,0.2,1.3,0.2c0.5,0,1-0.1,1.4-0.3c0.4-0.2,0.8-0.4,1-0.7
	c0.2-0.3,0.4-0.7,0.4-1.1c0-0.4-0.1-0.7-0.3-0.9c-0.2-0.2-0.5-0.4-0.8-0.6c-0.3-0.2-0.7-0.3-1.1-0.4l-1.4-0.4
	c-0.9-0.3-1.6-0.6-2.1-1.1s-0.8-1.1-0.8-1.9c0-0.6,0.2-1.2,0.5-1.7c0.4-0.5,0.8-0.9,1.4-1.1c0.6-0.3,1.3-0.4,2-0.4
	c0.7,0,1.4,0.1,2,0.4c0.6,0.3,1,0.6,1.4,1.1c0.3,0.5,0.5,1,0.5,1.6H124.7z"/>
<path class="st0" d="M137.1,2.2l0.2-1.2l8.5,1.4l-0.2,1.2L142.1,3l-1.7,10.2l-1.4-0.2l1.7-10.2L137.1,2.2z"/>
<path class="st0" d="M153.8,16.2l3.7-10.9l6.6,2.2l-0.4,1.2l-5.3-1.8l-1.2,3.7l4.9,1.6l-0.4,1.2l-4.9-1.6l-1.2,3.7l5.4,1.8l-0.4,1.2
	L153.8,16.2z"/>
<path class="st0" d="M172.7,23.9l-3.2-1.7l5.4-10.2l3.3,1.7c1,0.5,1.7,1.2,2.2,1.9c0.5,0.8,0.7,1.6,0.7,2.6c0,1-0.3,2-0.9,3
	c-0.6,1.1-1.2,1.9-2,2.4c-0.8,0.6-1.6,0.9-2.6,0.9C174.7,24.7,173.8,24.5,172.7,23.9z M171.4,21.8l1.8,1c0.8,0.4,1.6,0.6,2.4,0.6
	c0.7,0,1.4-0.3,2-0.7c0.6-0.5,1.1-1.1,1.5-1.9c0.4-0.8,0.7-1.6,0.7-2.3c0-0.7-0.1-1.4-0.5-2c-0.4-0.6-0.9-1.1-1.7-1.5l-2-1
	L171.4,21.8z"/>
<path class="st0" d="M199.1,42.8l8.3-8l2.8,2.9c0.6,0.6,0.9,1.2,1.1,1.7c0.2,0.6,0.2,1.1,0,1.6c-0.2,0.5-0.4,1-0.8,1.3
	c-0.4,0.3-0.7,0.6-1.1,0.7c-0.4,0.1-0.7,0.1-1,0c-0.3-0.1-0.6-0.2-0.9-0.4l-0.1,0.1c0.2,0.3,0.4,0.6,0.5,1c0.1,0.4,0.1,0.9-0.1,1.3
	c-0.1,0.5-0.4,0.9-0.9,1.3c-0.4,0.4-0.9,0.7-1.4,0.8c-0.5,0.1-1.1,0.1-1.7-0.1c-0.6-0.2-1.2-0.7-1.8-1.3L199.1,42.8z M201,43l1.9,2
	c0.6,0.7,1.2,1,1.7,1c0.5,0,1-0.1,1.3-0.5c0.3-0.3,0.5-0.6,0.6-1c0.1-0.4,0.1-0.8,0-1.2c-0.1-0.4-0.3-0.8-0.7-1.2l-2-2L201,43z
	 M204.7,39.4l1.8,1.9c0.3,0.3,0.6,0.5,1,0.6c0.4,0.1,0.7,0.2,1.1,0.1c0.4-0.1,0.7-0.2,1-0.5c0.4-0.4,0.6-0.8,0.6-1.3
	c0-0.5-0.2-1-0.8-1.6l-1.8-1.9L204.7,39.4z"/>
<path class="st0" d="M219.7,48.8l0.9,1.3l-2.6,5.7l0.1,0.1l6.2-0.4l0.9,1.3l-7.9,0.4l-3.9,2.7l-0.8-1.1l3.9-2.7L219.7,48.8z"/>
<path class="st0" d="M237.2,93.8l-0.4-1.3c0.4-0.2,0.7-0.4,0.9-0.7c0.2-0.3,0.4-0.6,0.5-0.9c0.1-0.3,0.2-0.7,0.2-1.1
	c0-0.4,0-0.7-0.2-1.1c-0.2-0.7-0.5-1.2-1-1.7c-0.5-0.4-1.1-0.7-1.9-0.9c-0.8-0.1-1.6-0.1-2.6,0.2c-1,0.3-1.7,0.7-2.3,1.2
	c-0.6,0.5-0.9,1.1-1.1,1.7c-0.2,0.6-0.2,1.3,0,2c0.1,0.4,0.3,0.7,0.5,1c0.2,0.3,0.4,0.6,0.7,0.8c0.3,0.2,0.6,0.4,0.9,0.5
	c0.4,0.1,0.7,0.2,1.1,0.1L233,95c-0.6,0.1-1.2,0-1.7-0.1c-0.5-0.1-1-0.4-1.4-0.7c-0.4-0.3-0.8-0.7-1.1-1.1c-0.3-0.4-0.5-0.9-0.7-1.5
	c-0.3-0.9-0.3-1.9,0-2.7c0.2-0.9,0.7-1.6,1.5-2.3c0.7-0.7,1.7-1.2,2.8-1.5c1.2-0.3,2.2-0.4,3.2-0.2c1,0.2,1.8,0.6,2.5,1.2
	c0.7,0.6,1.1,1.4,1.4,2.3c0.2,0.6,0.2,1.1,0.2,1.6c0,0.5-0.1,1.1-0.3,1.5c-0.2,0.5-0.5,0.9-0.8,1.3
	C238.1,93.2,237.7,93.6,237.2,93.8z"/>
<path class="st0" d="M231.4,106.3l11.4-1.4l0.2,1.4l-10.2,1.2l0.6,5.3l-1.2,0.1L231.4,106.3z"/>
<path class="st0" d="M243.9,127.7l-11.5-0.5l0.1-1.4l11.5,0.5L243.9,127.7z"/>
<path class="st0" d="M231,140.9l11.3,2.3l-1.4,6.8l-1.2-0.2l1.1-5.4l-3.8-0.8l-1,5.1l-1.2-0.2l1-5.1l-3.8-0.8l-1.1,5.5l-1.2-0.2
	L231,140.9z"/>
<path class="st0" d="M234.3,170.2l-10.8-4.1l0.5-1.3l10.7-2.7l0-0.1l-8.5-3.2l0.5-1.3l10.8,4.1l-0.5,1.3l-10.7,2.7l0,0.1l8.5,3.2
	L234.3,170.2z"/>
<path class="st0" d="M228.8,178.7l1.1,0.6l-4.3,7.5l-1.1-0.6l1.8-3.1l-8.9-5.1l0.7-1.2l8.9,5.1L228.8,178.7z"/>
<path class="st0" d="M212.7,199.4c0.5,0.3,1,0.4,1.6,0.2c0.5-0.2,1-0.5,1.5-1.1c0.3-0.4,0.5-0.8,0.7-1.2c0.1-0.4,0.1-0.8,0-1.1
	c-0.1-0.3-0.3-0.6-0.6-0.9c-0.2-0.2-0.5-0.3-0.8-0.3c-0.3,0-0.5,0-0.8,0.1c-0.3,0.1-0.5,0.2-0.7,0.3c-0.2,0.1-0.4,0.3-0.6,0.4
	l-1,0.7c-0.3,0.2-0.5,0.4-0.9,0.6c-0.3,0.2-0.7,0.4-1.1,0.5c-0.4,0.1-0.8,0.1-1.2,0.1c-0.4-0.1-0.9-0.3-1.3-0.6
	c-0.5-0.4-0.8-0.9-1-1.4c-0.2-0.6-0.2-1.2,0-1.9c0.2-0.7,0.5-1.3,1.1-2c0.5-0.6,1.1-1.1,1.7-1.4c0.6-0.3,1.2-0.4,1.8-0.4
	c0.6,0,1.1,0.2,1.7,0.6l-0.9,1.1c-0.4-0.2-0.7-0.4-1.1-0.3c-0.4,0-0.8,0.1-1.1,0.4c-0.4,0.2-0.7,0.5-1,0.9c-0.3,0.4-0.6,0.8-0.7,1.3
	c-0.1,0.4-0.2,0.9-0.1,1.2c0.1,0.4,0.3,0.7,0.6,1c0.3,0.2,0.6,0.4,0.9,0.3c0.3,0,0.7-0.1,1-0.3s0.7-0.4,1-0.6l1.2-0.8
	c0.8-0.5,1.5-0.9,2.2-1c0.7-0.1,1.4,0.1,2,0.6c0.5,0.4,0.8,0.9,1,1.5c0.2,0.6,0.1,1.2,0,1.8c-0.2,0.6-0.5,1.2-0.9,1.8
	c-0.5,0.6-1,1-1.6,1.3c-0.6,0.3-1.1,0.4-1.7,0.4c-0.6,0-1.1-0.2-1.6-0.6L212.7,199.4z"/>
<path class="st0" d="M165.2,229.8l-0.5-1.1l4.6-2l0.5,1.1L165.2,229.8z"/>
</svg>
