<svg width="147" height="59" viewBox="0 0 147 59" fill="none" xmlns="http://www.w3.org/2000/svg">
<g clip-path="url(#clip0_116_222)">
<path d="M7.01202 6.22545C7.39422 4.41147 9.20232 2.94 11.0442 2.94H21.0579L12.7303 42.3698H2.71668C0.873298 42.3698 -0.311522 40.8998 0.0721476 39.0844L7.01202 6.22545ZM40.3913 6.22545C40.775 4.41147 42.5816 2.94 44.4235 2.94H54.4372L46.1096 42.3698H36.096C34.2526 42.3698 33.0678 40.8998 33.4514 39.0844L40.3913 6.22545ZM107.151 6.22545C107.534 4.41147 109.339 2.94 111.184 2.94H121.197L112.87 42.3698H102.855C101.011 42.3698 99.8278 40.8998 100.211 39.0844L107.151 6.22545ZM57.7755 2.94H67.7892C69.6325 2.94 70.8174 4.41 70.4337 6.22545L63.4938 39.0844C63.1116 40.8998 61.305 42.3698 59.4616 42.3698H49.448L57.7755 2.94ZM124.536 2.94H134.549C136.393 2.94 137.577 4.41 137.194 6.22545L130.252 39.0844C129.87 40.8998 128.065 42.3698 126.222 42.3698H116.207L124.536 2.94ZM73.7721 6.22545C74.1543 4.41147 75.9594 2.94 77.8028 2.94H87.8179L79.4889 42.3698H69.4753C67.6319 42.3698 66.4471 40.8998 66.8322 39.0844L73.7706 6.22545H73.7721ZM91.1548 2.94H101.17C103.013 2.94 104.197 4.41 103.813 6.22545L93.4039 55.5145C93.0188 57.3285 91.2136 58.8 89.3702 58.8H79.3551L91.1548 2.94ZM18.844 29.2265H32.1961L30.1145 39.0844C29.7309 40.8998 27.9242 42.3698 26.0823 42.3698H16.0672L18.8426 29.228L18.844 29.2265ZM65.4445 45.6567H78.7951L76.0197 58.8H66.0061C64.1612 58.8 62.9778 57.33 63.3615 55.5145L65.4445 45.6567ZM101.686 48.7129L99.9954 56.7185C99.9219 57.0625 99.8072 57.1565 99.4574 57.1565H98.6886C98.3387 57.1565 98.2622 57.0625 98.3357 56.7185L100.026 48.7129C100.1 48.3703 100.214 48.2748 100.564 48.2748H101.333C101.683 48.2748 101.759 48.3703 101.686 48.7129ZM103.909 54.1136H103.751C103.584 54.1136 103.525 54.1607 103.491 54.3268L102.985 56.7185C102.912 57.0625 102.796 57.1565 102.447 57.1565H101.677C101.329 57.1565 101.252 57.0625 101.324 56.7185L103.015 48.7129C103.088 48.3703 103.206 48.2748 103.554 48.2748H105.142C106.971 48.2748 107.663 48.926 107.325 50.5239L107.043 51.8631C106.704 53.4624 105.737 54.1136 103.909 54.1136ZM104.373 50.1461L103.932 52.2423C103.895 52.4084 103.934 52.4555 104.103 52.4555H104.355C104.943 52.4555 105.259 52.2188 105.387 51.6146L105.564 50.7738C105.692 50.1711 105.477 49.933 104.888 49.933H104.635C104.467 49.933 104.408 49.98 104.373 50.1461ZM109.868 51.4368L111.117 52.8112C111.773 53.5212 111.864 53.9475 111.697 54.7413L111.652 54.9545C111.336 56.4465 110.584 57.2756 108.839 57.2756C107.095 57.2756 106.665 56.5774 107.068 54.6693L107.118 54.4341C107.191 54.0901 107.307 53.9946 107.656 53.9946H108.473C108.823 53.9946 108.899 54.0901 108.826 54.4326L108.715 54.9545C108.615 55.4278 108.768 55.6175 109.189 55.6175C109.611 55.6175 109.84 55.4411 109.931 55.0148L109.978 54.7884C110.049 54.4562 110.01 54.2915 109.649 53.9005L108.473 52.6334C107.814 51.9351 107.731 51.5308 107.898 50.737L107.952 50.4783C108.269 48.9863 109.021 48.1557 110.765 48.1557C112.509 48.1557 112.94 48.8555 112.537 50.762L112.487 50.9987C112.414 51.3427 112.298 51.4368 111.949 51.4368H111.131C110.782 51.4368 110.706 51.3427 110.778 50.9987L110.888 50.4783C110.988 50.0035 110.837 49.8154 110.415 49.8154C109.994 49.8154 109.764 49.9918 109.674 50.4181L109.631 50.6195C109.558 50.9634 109.596 51.1295 109.868 51.4368ZM116.912 48.7129C116.986 48.3703 117.1 48.2748 117.45 48.2748H118.219C118.569 48.2748 118.645 48.3703 118.572 48.7129L117.313 54.6708C116.911 56.5774 116.186 57.2756 114.441 57.2756C112.698 57.2756 112.267 56.5774 112.67 54.6693L113.928 48.7129C114.002 48.3703 114.118 48.2748 114.466 48.2748H115.236C115.585 48.2748 115.661 48.3703 115.589 48.7129L114.271 54.9545C114.171 55.4278 114.335 55.6175 114.792 55.6175C115.236 55.6175 115.494 55.4278 115.594 54.9545L116.912 48.7129ZM121.919 53.533C121.923 53.6285 121.954 53.6506 122.015 53.6506C122.073 53.6506 122.116 53.6285 122.16 53.533L124.239 48.5835C124.34 48.3336 124.461 48.2748 124.762 48.2748H125.929C126.278 48.2748 126.354 48.3703 126.282 48.7129L124.591 56.7185C124.518 57.0625 124.4 57.1565 124.052 57.1565H123.499C123.151 57.1565 123.073 57.0625 123.146 56.7185L123.958 52.8818C123.98 52.7759 123.961 52.7509 123.889 52.7509C123.84 52.7509 123.786 52.7759 123.756 52.8583L122.078 56.767C121.957 57.0507 121.803 57.1565 121.454 57.1565H121.128C120.766 57.1565 120.658 57.0507 120.658 56.767L120.617 52.8568C120.609 52.7745 120.59 52.7509 120.53 52.7509C120.458 52.7509 120.428 52.7759 120.406 52.8818L119.596 56.7185C119.523 57.0625 119.408 57.1565 119.058 57.1565H118.506C118.156 57.1565 118.079 57.0625 118.153 56.7185L119.843 48.7129C119.917 48.3703 120.033 48.2748 120.381 48.2748H121.381C121.801 48.2748 121.937 48.3703 121.934 48.7849L121.917 53.533H121.919ZM147 2.94C147 4.56435 145.692 5.88 144.079 5.88C143.694 5.87884 143.313 5.80187 142.958 5.65348C142.603 5.50508 142.281 5.28818 142.01 5.01516C141.738 4.74213 141.524 4.41834 141.378 4.06228C141.231 3.70621 141.157 3.32486 141.158 2.94C141.158 1.31565 142.467 0 144.079 0C145.692 0 147 1.31565 147 2.94Z" fill="#283841"/>
</g>
<defs>
<clipPath id="clip0_116_222">
<rect width="147" height="58.8" fill="white"/>
</clipPath>
</defs>
</svg>
