<svg width="153" height="37" viewBox="0 0 153 37" fill="none" xmlns="http://www.w3.org/2000/svg">
<g clip-path="url(#clip0_116_260)">
<path fill-rule="evenodd" clip-rule="evenodd" d="M9.04443 2.3125V37H0V2.3125H9.04443Z" fill="#283841"/>
<path fill-rule="evenodd" clip-rule="evenodd" d="M13.5654 2.3125H32.7849C39.0288 2.3125 44.0904 7.48921 44.0904 13.875C44.0904 20.2608 39.0288 25.4375 32.7849 25.4375H22.6099V37H13.5654V2.3125ZM22.6099 16.1875H32.7849C34.0337 16.1875 35.046 15.1521 35.046 13.875C35.046 12.5979 34.0337 11.5625 32.7849 11.5625H22.6099V16.1875Z" fill="#283841"/>
<path fill-rule="evenodd" clip-rule="evenodd" d="M78.0063 2.3125V20.2344C78.0063 24.3851 81.2964 27.75 85.3549 27.75C89.4135 27.75 92.7037 24.3851 92.7037 20.2344V2.3125H101.748V20.2344C101.748 29.4938 94.4088 37 85.3549 37C76.3013 37 68.9619 29.4938 68.9619 20.2344V2.3125H78.0063Z" fill="#283841"/>
<path fill-rule="evenodd" clip-rule="evenodd" d="M47.4839 18.5C47.4839 9.55988 54.5702 2.3125 63.3116 2.3125H65.5728V11.5625H63.3116C59.5653 11.5625 56.5283 14.6686 56.5283 18.5V19.6562C56.5283 29.2349 48.9358 37 39.57 37H38.4395V27.75H39.57C43.9407 27.75 47.4839 24.1263 47.4839 19.6562V18.5Z" fill="#283841"/>
<path d="M152.624 3.46875C152.624 5.38449 151.106 6.9375 149.232 6.9375C147.359 6.9375 145.841 5.38449 145.841 3.46875C145.841 1.55301 147.359 0 149.232 0C151.106 0 152.624 1.55301 152.624 3.46875Z" fill="#283841"/>
<path d="M111.461 37L115.777 18.5167L118.986 29.6363C120.899 36.2684 130.084 36.2684 131.998 29.6363L135.206 18.5167L139.522 37H148.82L142.034 7.93597C140.42 1.02432 130.897 0.768414 128.93 7.58394L125.492 19.502L122.053 7.58394C120.087 0.768454 110.563 1.02429 108.949 7.93596L102.163 37H111.461Z" fill="#283841"/>
</g>
<defs>
<clipPath id="clip0_116_260">
<rect width="152.625" height="37" fill="white"/>
</clipPath>
</defs>
</svg>
