<svg width="100" height="76" viewBox="0 0 100 76" fill="none" xmlns="http://www.w3.org/2000/svg">
<g clip-path="url(#clip0_116_451)">
<path d="M99.9999 2.77778C99.9999 3.51449 99.7072 4.22103 99.1863 4.74196C98.6654 5.2629 97.9588 5.55556 97.2221 5.55556C96.4854 5.55556 95.7789 5.2629 95.2579 4.74196C94.737 4.22103 94.4443 3.51449 94.4443 2.77778C94.4443 2.04107 94.737 1.33453 95.2579 0.813592C95.7789 0.292658 96.4854 0 97.2221 0C97.9588 0 98.6654 0.292658 99.1863 0.813592C99.7072 1.33453 99.9999 2.04107 99.9999 2.77778Z" fill="#283841"/>
<path fill-rule="evenodd" clip-rule="evenodd" d="M25.463 75.5445C11.4 75.5445 0 64.1445 0 50.0816V1.85193H9.25926V50.0816C9.25926 54.379 10.9664 58.5005 14.0052 61.5393C17.044 64.5781 21.1655 66.2853 25.463 66.2853C34.5241 66.2853 41.6667 59.3019 41.6667 50.463H50.9259V64.3519C50.9259 64.9659 51.1698 65.5546 51.6039 65.9888C52.038 66.4229 52.6268 66.6667 53.2407 66.6667C53.8547 66.6667 54.4435 66.4229 54.8776 65.9888C55.3117 65.5546 55.5556 64.9659 55.5556 64.3519V47.9167C53.8738 48.26 52.1367 48.225 50.4701 47.8141C48.8035 47.4032 47.2492 46.6267 45.9197 45.541C44.5903 44.4553 43.5189 43.0874 42.7833 41.5366C42.0478 39.9857 41.6663 38.2906 41.6667 36.5742V13.426C41.6667 10.3564 42.8861 7.41246 45.0566 5.2419C47.2272 3.07134 50.1711 1.85193 53.2407 1.85193C56.3104 1.85193 59.2543 3.07134 61.4248 5.2419C63.5954 7.41246 64.8148 10.3564 64.8148 13.426V64.3519C64.8148 64.9659 65.0587 65.5546 65.4928 65.9888C65.9269 66.4229 66.5157 66.6667 67.1296 66.6667C67.7436 66.6667 68.3323 66.4229 68.7664 65.9888C69.2006 65.5546 69.4444 64.9659 69.4444 64.3519V13.426C69.4444 10.3564 70.6638 7.41246 72.8344 5.2419C75.005 3.07134 77.9489 1.85193 81.0185 1.85193C84.0882 1.85193 87.0321 3.07134 89.2026 5.2419C91.3732 7.41246 92.5926 10.3564 92.5926 13.426V64.3519C92.5926 66.5014 91.994 68.6084 90.864 70.4368C89.734 72.2652 88.1171 73.7428 86.1946 74.7041C84.2721 75.6654 82.1199 76.0723 79.9791 75.8792C77.8383 75.6862 75.7936 74.9009 74.0741 73.6112C72.0724 75.1171 69.6345 75.9298 67.1296 75.926C64.6247 75.9298 62.1868 75.1171 60.1852 73.6112C58.7922 74.6558 57.1815 75.3728 55.473 75.7086C53.7645 76.0445 52.0022 75.9906 50.3175 75.5509C48.6327 75.1113 47.0688 74.2973 45.7422 73.1695C44.4156 72.0417 43.3606 70.6292 42.6556 69.0371C38.1074 73.1056 32.0574 75.5445 25.463 75.5445ZM81.0185 66.6667C79.7407 66.6667 78.7037 65.6297 78.7037 64.3519V13.426C78.7037 12.8121 78.9476 12.2233 79.3817 11.7892C79.8158 11.3551 80.4046 11.1112 81.0185 11.1112C81.6324 11.1112 82.2212 11.3551 82.6553 11.7892C83.0895 12.2233 83.3333 12.8121 83.3333 13.426V64.3519C83.3333 65.6297 82.2963 66.6667 81.0185 66.6667ZM55.5556 36.5742C55.5556 37.1881 55.3117 37.7769 54.8776 38.211C54.4435 38.6451 53.8547 38.889 53.2407 38.889C52.6268 38.889 52.038 38.6451 51.6039 38.211C51.1698 37.7769 50.9259 37.1881 50.9259 36.5742V13.426C50.9259 12.8121 51.1698 12.2233 51.6039 11.7892C52.038 11.3551 52.6268 11.1112 53.2407 11.1112C53.8547 11.1112 54.4435 11.3551 54.8776 11.7892C55.3117 12.2233 55.5556 12.8121 55.5556 13.426V36.5742Z" fill="#283841"/>
<path fill-rule="evenodd" clip-rule="evenodd" d="M13.8887 50.463C13.8887 53.5327 15.1081 56.4766 17.2786 58.6471C19.4492 60.8177 22.3931 62.0371 25.4627 62.0371C28.5324 62.0371 31.4763 60.8177 33.6469 58.6471C35.8174 56.4766 37.0368 53.5327 37.0368 50.463V13.426C37.0368 10.3564 35.8174 7.41246 33.6469 5.2419C31.4763 3.07134 28.5324 1.85193 25.4627 1.85193C22.3931 1.85193 19.4492 3.07134 17.2786 5.2419C15.1081 7.41246 13.8887 10.3564 13.8887 13.426V50.463ZM25.4627 52.7779C24.185 52.7779 23.1479 51.7408 23.1479 50.463V13.426C23.1479 12.8121 23.3918 12.2233 23.8259 11.7892C24.26 11.3551 24.8488 11.1112 25.4627 11.1112C26.0767 11.1112 26.6655 11.3551 27.0996 11.7892C27.5337 12.2233 27.7776 12.8121 27.7776 13.426V50.463C27.7776 51.7408 26.7405 52.7779 25.4627 52.7779Z" fill="#283841"/>
</g>
<defs>
<clipPath id="clip0_116_451">
<rect width="100" height="75.9259" fill="white"/>
</clipPath>
</defs>
</svg>
